
        <svg data-logo="logo" xmlns="http://www.w3.org/2000/svg" viewBox="0 0 262 43">
          <g id="logogram" transform="translate(0, 1.5) rotate(0)"><path d="M50.965 1.992C53.593 0.716004 56.543 0 59.66 0C62.777 0 65.728 0.716004 68.355 1.992H50.965ZM48.846 3.187C49.057 3.051 49.271 2.918 49.487 2.789H69.833C70.99 3.477 72.071 4.27899 73.061 5.17999H46.259C46.408 5.04499 46.558 4.91201 46.711 4.78101H26.788C26.884 4.69901 26.981 4.617 27.08 4.536H7.45502C7.80002 4.259 8.154 3.993 8.517 3.739H28.114C28.379 3.549 28.648 3.365 28.922 3.187H48.846ZM43.428 8.367C43.524 8.233 43.621 8.09999 43.72 7.96899H23.797C23.858 7.88699 23.921 7.805 23.984 7.724H4.29102C4.50602 7.452 4.72702 7.187 4.95602 6.927H24.635C24.796 6.74 24.961 6.556 25.129 6.375H45.052C45.177 6.24 45.304 6.10801 45.432 5.97701H73.888C74.616 6.719 75.287 7.519 75.892 8.367H43.428ZM42.639 9.563C42.721 9.429 42.804 9.296 42.888 9.164H76.432C76.922 9.927 77.362 10.726 77.746 11.555H41.574C41.636 11.421 41.699 11.289 41.764 11.157H21.841C21.881 11.075 21.922 10.993 21.963 10.911H2.229C2.369 10.642 2.51402 10.376 2.66602 10.114H22.391C22.496 9.929 22.605 9.745 22.716 9.563H42.639ZM40.417 14.743C40.453 14.609 40.49 14.477 40.528 14.344H20.605C20.629 14.262 20.653 14.181 20.678 14.099H0.912994C0.996994 13.831 1.08601 13.565 1.18201 13.302H20.94C21.005 13.117 21.073 12.933 21.143 12.75H41.067C41.118 12.617 41.171 12.484 41.226 12.352H78.095C78.413 13.126 78.684 13.924 78.903 14.743H40.417ZM40.135 15.938C40.162 15.805 40.191 15.672 40.22 15.54H79.1C79.275 16.32 79.404 17.118 79.485 17.931H39.835C39.848 17.797 39.863 17.665 39.879 17.532H19.955C19.965 17.45 19.975 17.368 19.986 17.287H0.194C0.232 17.02 0.274021 16.754 0.322021 16.49H20.108C20.14 16.305 20.175 16.121 20.212 15.938H40.135ZM79.583 19.923C79.583 20.324 79.572 20.723 79.548 21.118H39.772C39.764 20.986 39.758 20.853 39.752 20.72H19.829C19.826 20.638 19.823 20.556 19.821 20.475H0.0039978C0.0019978 20.342 0 20.209 0 20.076C0 19.943 0.0019978 19.81 0.0039978 19.678H19.815C19.817 19.493 19.822 19.309 19.829 19.126H39.752C39.758 18.993 39.764 18.86 39.772 18.728H79.548C79.572 19.123 79.583 19.522 79.583 19.923ZM79.485 21.915C79.404 22.728 79.275 23.525 79.1 24.306H40.22C40.191 24.174 40.162 24.041 40.135 23.908H20.212C20.195 23.826 20.179 23.744 20.164 23.662H0.322021C0.274021 23.399 0.232 23.133 0.194 22.865H20.029C20.002 22.682 19.977 22.498 19.955 22.314H39.879C39.863 22.181 39.848 22.048 39.835 21.915H79.485ZM21.143 27.095C21.112 27.014 21.081 26.932 21.051 26.85H1.18201C1.08601 26.587 0.996994 26.321 0.912994 26.053H20.774C20.715 25.87 20.659 25.686 20.605 25.501H40.528C40.49 25.369 40.453 25.236 40.417 25.103H78.903C78.684 25.922 78.413 26.72 78.095 27.494H41.226C41.171 27.362 41.118 27.229 41.067 27.095H21.143ZM77.746 28.291C77.362 29.12 76.922 29.919 76.432 30.682H42.888C42.804 30.55 42.721 30.417 42.639 30.283H22.716C22.666 30.202 22.617 30.12 22.568 30.038H2.66602C2.51402 29.776 2.369 29.51 2.229 29.241H22.122C22.026 29.059 21.932 28.875 21.841 28.689H41.764C41.699 28.557 41.636 28.424 41.574 28.291H77.746ZM25.129 33.471C25.053 33.39 24.979 33.308 24.905 33.226H4.95602C4.72702 32.966 4.50602 32.7 4.29102 32.429H24.226C24.08 32.247 23.937 32.063 23.797 31.877H43.72C43.621 31.745 43.524 31.613 43.428 31.478H75.892C75.287 32.327 74.616 33.127 73.888 33.869H45.432C45.304 33.738 45.177 33.605 45.052 33.471H25.129ZM73.061 34.666C72.071 35.567 70.99 36.369 69.833 37.057H49.487C49.271 36.928 49.057 36.795 48.846 36.659H28.922C28.798 36.578 28.675 36.496 28.553 36.413H8.517C8.154 36.159 7.80002 35.893 7.45502 35.616H27.461C27.233 35.437 27.008 35.253 26.788 35.065H46.711C46.558 34.934 46.408 34.801 46.259 34.666H73.061ZM68.355 37.854C65.728 39.13 62.777 39.846 59.66 39.846C56.543 39.846 53.593 39.13 50.965 37.854H68.355ZM13.111 1.34799C15.236 0.574992 17.531 0.153 19.924 0.153C22.317 0.153 24.611 0.574992 26.737 1.34799H13.111ZM26.737 38.804C24.611 39.578 22.317 40 19.924 40C17.531 40 15.236 39.578 13.111 38.804H26.737ZM39.737 0C42.513 0 45.157 0.567002 47.558 1.593H31.915C34.317 0.567002 36.96 0 39.737 0ZM39.737 39.846C36.96 39.846 34.317 39.278 31.915 38.252H47.558C45.157 39.278 42.513 39.846 39.737 39.846Z" fill="url(#paint0_linear_5689_3913)"/></g>
          <g id="logotype" transform="translate(86, 0)"><path fill="#111111" d="M24.51 35L8.31 35L8.31 9.54L13.52 9.54L13.52 30.68L24.51 30.68L24.51 35ZM34.25 35.38L34.25 35.38Q31.38 35.38 29.27 34.14Q27.17 32.90 26.04 30.68Q24.90 28.47 24.90 25.53L24.90 25.53Q24.90 22.56 26.04 20.35Q27.17 18.13 29.27 16.89Q31.38 15.65 34.25 15.65L34.25 15.65Q37.14 15.65 39.23 16.89Q41.32 18.13 42.46 20.35Q43.60 22.56 43.60 25.53L43.60 25.53Q43.60 28.47 42.46 30.68Q41.32 32.90 39.23 34.14Q37.14 35.38 34.25 35.38ZM34.25 31.34L34.25 31.34Q35.61 31.34 36.54 30.58Q37.46 29.82 37.92 28.50Q38.38 27.17 38.38 25.52L38.38 25.52Q38.38 23.82 37.92 22.51Q37.46 21.19 36.54 20.44Q35.61 19.69 34.25 19.69L34.25 19.69Q32.88 19.69 31.97 20.44Q31.05 21.19 30.59 22.51Q30.13 23.82 30.13 25.52L30.13 25.52Q30.13 27.17 30.59 28.50Q31.05 29.82 31.97 30.58Q32.88 31.34 34.25 31.34ZM53.37 42.55L53.37 42.55Q50.99 42.55 49.22 41.95Q47.44 41.34 46.33 40.28Q45.22 39.22 44.79 37.87L44.79 37.87L49.20 36.64Q49.44 37.17 49.94 37.67Q50.45 38.18 51.28 38.50Q52.12 38.83 53.35 38.83L53.35 38.83Q55.32 38.83 56.44 37.93Q57.56 37.03 57.56 35.14L57.56 35.14L57.56 31.62L57.16 31.62Q56.82 32.39 56.17 33.10Q55.52 33.82 54.47 34.27Q53.42 34.73 51.87 34.73L51.87 34.73Q49.71 34.73 47.95 33.72Q46.19 32.71 45.14 30.64Q44.09 28.57 44.09 25.41L44.09 25.41Q44.09 22.18 45.16 20.01Q46.23 17.84 47.99 16.75Q49.76 15.65 51.88 15.65L51.88 15.65Q53.49 15.65 54.58 16.19Q55.68 16.73 56.35 17.54Q57.03 18.35 57.37 19.11L57.37 19.11L57.59 19.11L57.59 15.89L62.63 15.89L62.63 34.85Q62.63 37.43 61.44 39.14Q60.26 40.86 58.17 41.71Q56.09 42.55 53.37 42.55ZM53.47 30.83L53.47 30.83Q54.79 30.83 55.70 30.18Q56.62 29.53 57.09 28.31Q57.57 27.09 57.57 25.38L57.57 25.38Q57.57 23.69 57.09 22.42Q56.62 21.16 55.70 20.46Q54.79 19.76 53.47 19.76L53.47 19.76Q52.12 19.76 51.21 20.48Q50.29 21.21 49.82 22.47Q49.35 23.74 49.35 25.38L49.35 25.38Q49.35 27.05 49.82 28.28Q50.29 29.50 51.22 30.16Q52.14 30.83 53.47 30.83ZM73.28 35.38L73.28 35.38Q70.41 35.38 68.30 34.14Q66.20 32.90 65.06 30.68Q63.93 28.47 63.93 25.53L63.93 25.53Q63.93 22.56 65.06 20.35Q66.20 18.13 68.30 16.89Q70.41 15.65 73.28 15.65L73.28 15.65Q76.16 15.65 78.26 16.89Q80.35 18.13 81.49 20.35Q82.62 22.56 82.62 25.53L82.62 25.53Q82.62 28.47 81.49 30.68Q80.35 32.90 78.26 34.14Q76.16 35.38 73.28 35.38ZM73.28 31.34L73.28 31.34Q74.64 31.34 75.57 30.58Q76.49 29.82 76.95 28.50Q77.41 27.17 77.41 25.52L77.41 25.52Q77.41 23.82 76.95 22.51Q76.49 21.19 75.57 20.44Q74.64 19.69 73.28 19.69L73.28 19.69Q71.91 19.69 71.00 20.44Q70.08 21.19 69.62 22.51Q69.16 23.82 69.16 25.52L69.16 25.52Q69.16 27.17 69.62 28.50Q70.08 29.82 71.00 30.58Q71.91 31.34 73.28 31.34ZM89.05 35L83.92 35L83.92 15.89L89.05 15.89L89.05 35ZM86.48 13.40L86.48 13.40Q85.32 13.40 84.50 12.63Q83.68 11.86 83.68 10.77L83.68 10.77Q83.68 9.67 84.50 8.90Q85.32 8.13 86.48 8.13L86.48 8.13Q87.65 8.13 88.48 8.90Q89.30 9.66 89.30 10.77L89.30 10.77Q89.30 11.86 88.48 12.63Q87.65 13.40 86.48 13.40ZM96.26 42.14L91.13 42.14L91.13 15.89L96.17 15.89L96.17 19.11L96.41 19.11Q96.77 18.35 97.43 17.55Q98.09 16.75 99.16 16.20Q100.24 15.65 101.86 15.65L101.86 15.65Q103.98 15.65 105.74 16.75Q107.50 17.84 108.55 20.03Q109.61 22.22 109.61 25.48L109.61 25.48Q109.61 28.66 108.58 30.86Q107.55 33.05 105.79 34.19Q104.03 35.32 101.83 35.32L101.83 35.32Q100.27 35.32 99.20 34.79Q98.12 34.27 97.45 33.49Q96.77 32.71 96.41 31.94L96.41 31.94L96.26 31.94L96.26 42.14ZM100.26 31.21L100.26 31.21Q101.59 31.21 102.50 30.47Q103.42 29.74 103.89 28.44Q104.36 27.14 104.36 25.46L104.36 25.46Q104.36 23.79 103.89 22.51Q103.42 21.23 102.51 20.49Q101.61 19.76 100.26 19.76L100.26 19.76Q98.94 19.76 98.02 20.47Q97.10 21.17 96.62 22.45Q96.14 23.72 96.14 25.46L96.14 25.46Q96.14 27.19 96.63 28.48Q97.11 29.77 98.04 30.49Q98.96 31.21 100.26 31.21ZM118.51 35.38L118.51 35.38Q116.20 35.38 114.42 34.72Q112.65 34.06 111.52 32.80Q110.39 31.55 110.06 29.77L110.06 29.77L114.83 28.95Q115.21 30.28 116.15 30.95Q117.09 31.62 118.66 31.62L118.66 31.62Q120.11 31.62 120.97 31.06Q121.82 30.51 121.82 29.65L121.82 29.65Q121.82 28.90 121.22 28.42Q120.61 27.94 119.36 27.69L119.36 27.69L116.06 27.00Q113.29 26.44 111.93 25.08Q110.56 23.72 110.56 21.58L110.56 21.58Q110.56 19.74 111.57 18.41Q112.58 17.09 114.37 16.37Q116.17 15.65 118.59 15.65L118.59 15.65Q120.85 15.65 122.51 16.28Q124.16 16.90 125.19 18.05Q126.21 19.19 126.56 20.75L126.56 20.75L122.01 21.55Q121.72 20.58 120.89 19.95Q120.06 19.33 118.66 19.33L118.66 19.33Q117.40 19.33 116.54 19.86Q115.69 20.39 115.69 21.26L115.69 21.26Q115.69 21.99 116.24 22.49Q116.80 22.99 118.15 23.26L118.15 23.26L121.58 23.94Q124.35 24.51 125.70 25.78Q127.05 27.05 127.05 29.10L127.05 29.10Q127.05 30.98 125.96 32.39Q124.86 33.80 122.94 34.59Q121.02 35.38 118.51 35.38ZM134.83 35.24L134.83 35.24Q132.84 35.24 131.36 34.38Q129.87 33.51 129.06 31.90Q128.25 30.28 128.25 28.04L128.25 28.04L128.25 15.89L133.37 15.89L133.37 27.16Q133.37 28.93 134.30 29.94Q135.22 30.95 136.83 30.95L136.83 30.95Q137.92 30.95 138.76 30.48Q139.59 30.01 140.06 29.11Q140.53 28.22 140.53 26.95L140.53 26.95L140.53 15.89L145.66 15.89L145.66 35L140.82 35L140.76 30.23L141.05 30.23Q140.29 32.64 138.75 33.94Q137.20 35.24 134.83 35.24ZM152.89 35L147.76 35L147.76 15.89L152.51 15.89L152.77 20.64L152.39 20.64Q152.84 18.88 153.70 17.77Q154.56 16.66 155.72 16.13Q156.89 15.60 158.17 15.60L158.17 15.60Q160.24 15.60 161.50 16.91Q162.77 18.22 163.36 20.95L163.36 20.95L162.77 20.95Q163.19 19.12 164.16 17.94Q165.12 16.75 166.45 16.18Q167.77 15.60 169.23 15.60L169.23 15.60Q170.99 15.60 172.36 16.37Q173.74 17.14 174.53 18.59Q175.33 20.03 175.33 22.11L175.33 22.11L175.33 35L170.20 35L170.20 23.09Q170.20 21.46 169.32 20.68Q168.44 19.89 167.16 19.89L167.16 19.89Q166.20 19.89 165.49 20.31Q164.78 20.73 164.40 21.48Q164.01 22.23 164.01 23.24L164.01 23.24L164.01 35L159.06 35L159.06 22.95Q159.06 21.55 158.23 20.72Q157.40 19.89 156.08 19.89L156.08 19.89Q155.18 19.89 154.45 20.30Q153.73 20.71 153.31 21.51Q152.89 22.30 152.89 23.45L152.89 23.45L152.89 35Z"/></g>
          <defs xmlns="http://www.w3.org/2000/svg"> <linearGradient id="paint0_linear_5689_3913" x1="0.000187372" y1="17.5717" x2="77.4803" y2="17.5717" gradientUnits="userSpaceOnUse"> <stop stop-color="#0046F9"/> <stop offset="0.1979" stop-color="#16DBF6"/> <stop offset="0.401" stop-color="#FFE713"/> <stop offset="0.6042" stop-color="#FF7917"/> <stop offset="0.8021" stop-color="#FB0000"/> <stop offset="1" stop-color="#B30000"/> </linearGradient> </defs>
        </svg>
      